<mxfile host="app.diagrams.net" modified="2024-01-05T20:53:34.519Z" agent="Mozilla/5.0 (Windows NT 10.0; Win64; x64) AppleWebKit/537.36 (KHTML, like Gecko) Chrome/120.0.0.0 Safari/537.36" etag="mQ-8-Yk5pNEXUVkkjw7c" version="22.1.16" type="github">
  <diagram name="Page-1" id="SaG5RkMBY4uXLhKhSdqJ">
    <mxGraphModel dx="3013" dy="1763" grid="1" gridSize="10" guides="1" tooltips="1" connect="1" arrows="1" fold="1" page="1" pageScale="1" pageWidth="850" pageHeight="1100" math="0" shadow="0">
      <root>
        <mxCell id="0" />
        <mxCell id="1" parent="0" />
        <mxCell id="NP1iqPsxtxDzdF3vVpSx-9" value="" style="rounded=0;whiteSpace=wrap;html=1;" vertex="1" parent="1">
          <mxGeometry x="-1080" y="-800" width="640" height="690" as="geometry" />
        </mxCell>
        <mxCell id="NP1iqPsxtxDzdF3vVpSx-2" value="&lt;font style=&quot;font-size: 15px;&quot;&gt;Test Initiation&lt;/font&gt;" style="ellipse;whiteSpace=wrap;html=1;" vertex="1" parent="1">
          <mxGeometry x="-880" y="-650" width="120" height="80" as="geometry" />
        </mxCell>
        <mxCell id="NP1iqPsxtxDzdF3vVpSx-3" value="&lt;font style=&quot;font-size: 15px;&quot;&gt;Result Management&lt;/font&gt;" style="ellipse;whiteSpace=wrap;html=1;" vertex="1" parent="1">
          <mxGeometry x="-880" y="-780" width="120" height="80" as="geometry" />
        </mxCell>
        <mxCell id="NP1iqPsxtxDzdF3vVpSx-4" value="&lt;font style=&quot;font-size: 15px;&quot;&gt;Student Registration&lt;/font&gt;&lt;br&gt;" style="ellipse;whiteSpace=wrap;html=1;" vertex="1" parent="1">
          <mxGeometry x="-700" y="-520" width="120" height="80" as="geometry" />
        </mxCell>
        <mxCell id="NP1iqPsxtxDzdF3vVpSx-5" value="&lt;font style=&quot;font-size: 15px;&quot;&gt;Lecturer Functions&lt;/font&gt;" style="ellipse;whiteSpace=wrap;html=1;" vertex="1" parent="1">
          <mxGeometry x="-780" y="-360" width="120" height="80" as="geometry" />
        </mxCell>
        <mxCell id="NP1iqPsxtxDzdF3vVpSx-6" value="Student&lt;br&gt;" style="shape=umlActor;verticalLabelPosition=bottom;verticalAlign=top;html=1;outlineConnect=0;" vertex="1" parent="1">
          <mxGeometry x="-580" y="-410" width="30" height="60" as="geometry" />
        </mxCell>
        <mxCell id="NP1iqPsxtxDzdF3vVpSx-7" value="Lecturer" style="shape=umlActor;verticalLabelPosition=bottom;verticalAlign=top;html=1;outlineConnect=0;" vertex="1" parent="1">
          <mxGeometry x="-490" y="-290" width="30" height="60" as="geometry" />
        </mxCell>
        <mxCell id="NP1iqPsxtxDzdF3vVpSx-26" value="" style="endArrow=none;html=1;rounded=0;entryX=0.5;entryY=1;entryDx=0;entryDy=0;exitX=0.5;exitY=0.7;exitDx=0;exitDy=0;exitPerimeter=0;" edge="1" parent="1" source="NP1iqPsxtxDzdF3vVpSx-6" target="NP1iqPsxtxDzdF3vVpSx-4">
          <mxGeometry width="50" height="50" relative="1" as="geometry">
            <mxPoint x="-730" y="-540" as="sourcePoint" />
            <mxPoint x="-680" y="-590" as="targetPoint" />
            <Array as="points">
              <mxPoint x="-640" y="-368" />
            </Array>
          </mxGeometry>
        </mxCell>
        <mxCell id="NP1iqPsxtxDzdF3vVpSx-32" value="&lt;font style=&quot;&quot;&gt;&lt;font style=&quot;font-size: 15px;&quot;&gt;&lt;br&gt;Individual Student Registration&lt;/font&gt;&lt;br&gt;&lt;br&gt;&lt;/font&gt;" style="ellipse;whiteSpace=wrap;html=1;" vertex="1" parent="1">
          <mxGeometry x="-1050" y="-520" width="120" height="80" as="geometry" />
        </mxCell>
        <mxCell id="NP1iqPsxtxDzdF3vVpSx-35" value="" style="edgeStyle=segmentEdgeStyle;endArrow=classic;html=1;curved=0;rounded=0;endSize=8;startSize=8;sourcePerimeterSpacing=0;targetPerimeterSpacing=0;entryX=0.5;entryY=1;entryDx=0;entryDy=0;exitX=0.5;exitY=0;exitDx=0;exitDy=0;" edge="1" parent="1">
          <mxGeometry width="100" relative="1" as="geometry">
            <mxPoint x="840" y="-645" as="sourcePoint" />
            <mxPoint x="690" y="-695" as="targetPoint" />
            <Array as="points">
              <mxPoint x="840" y="-665" />
              <mxPoint x="690" y="-665" />
            </Array>
          </mxGeometry>
        </mxCell>
        <mxCell id="NP1iqPsxtxDzdF3vVpSx-37" value="" style="endArrow=none;html=1;rounded=0;exitX=0.5;exitY=1;exitDx=0;exitDy=0;entryX=0.5;entryY=0;entryDx=0;entryDy=0;" edge="1" parent="1" source="NP1iqPsxtxDzdF3vVpSx-2" target="NP1iqPsxtxDzdF3vVpSx-4">
          <mxGeometry width="50" height="50" relative="1" as="geometry">
            <mxPoint x="-730" y="-480" as="sourcePoint" />
            <mxPoint x="-680" y="-530" as="targetPoint" />
            <Array as="points">
              <mxPoint x="-820" y="-550" />
              <mxPoint x="-750" y="-550" />
              <mxPoint x="-640" y="-550" />
            </Array>
          </mxGeometry>
        </mxCell>
        <mxCell id="NP1iqPsxtxDzdF3vVpSx-39" value="" style="endArrow=classic;html=1;rounded=0;entryX=0.5;entryY=1;entryDx=0;entryDy=0;exitX=0.5;exitY=0;exitDx=0;exitDy=0;" edge="1" parent="1" source="NP1iqPsxtxDzdF3vVpSx-2" target="NP1iqPsxtxDzdF3vVpSx-3">
          <mxGeometry width="50" height="50" relative="1" as="geometry">
            <mxPoint x="-730" y="-640" as="sourcePoint" />
            <mxPoint x="-680" y="-690" as="targetPoint" />
          </mxGeometry>
        </mxCell>
        <mxCell id="NP1iqPsxtxDzdF3vVpSx-40" value="" style="endArrow=none;html=1;rounded=0;exitX=1;exitY=0.5;exitDx=0;exitDy=0;entryX=0.5;entryY=0.5;entryDx=0;entryDy=0;entryPerimeter=0;" edge="1" parent="1" source="NP1iqPsxtxDzdF3vVpSx-5" target="NP1iqPsxtxDzdF3vVpSx-7">
          <mxGeometry width="50" height="50" relative="1" as="geometry">
            <mxPoint x="-730" y="-470" as="sourcePoint" />
            <mxPoint x="-680" y="-520" as="targetPoint" />
            <Array as="points">
              <mxPoint x="-600" y="-320" />
              <mxPoint x="-600" y="-260" />
            </Array>
          </mxGeometry>
        </mxCell>
        <mxCell id="NP1iqPsxtxDzdF3vVpSx-42" value="&amp;lt;&amp;lt;Include&amp;gt;&amp;gt;" style="endArrow=open;endSize=12;dashed=1;html=1;rounded=0;fontFamily=Helvetica;fontSize=12;fontColor=default;exitX=0.5;exitY=1;exitDx=0;exitDy=0;entryX=0;entryY=0;entryDx=0;entryDy=0;" edge="1" parent="1" source="NP1iqPsxtxDzdF3vVpSx-32" target="NP1iqPsxtxDzdF3vVpSx-5">
          <mxGeometry x="0.0066" width="160" relative="1" as="geometry">
            <mxPoint x="-860" y="-410" as="sourcePoint" />
            <mxPoint x="-700" y="-410" as="targetPoint" />
            <mxPoint as="offset" />
          </mxGeometry>
        </mxCell>
        <mxCell id="NP1iqPsxtxDzdF3vVpSx-48" value="&amp;lt;&amp;lt;Include&amp;gt;&amp;gt;" style="endArrow=open;endSize=12;dashed=1;html=1;rounded=0;fontFamily=Helvetica;fontSize=12;fontColor=default;exitX=1;exitY=0.5;exitDx=0;exitDy=0;entryX=0;entryY=1;entryDx=0;entryDy=0;" edge="1" parent="1" target="NP1iqPsxtxDzdF3vVpSx-5">
          <mxGeometry x="0.0066" width="160" relative="1" as="geometry">
            <mxPoint x="-940" y="-260" as="sourcePoint" />
            <mxPoint x="-852" y="-348" as="targetPoint" />
            <mxPoint as="offset" />
          </mxGeometry>
        </mxCell>
        <mxCell id="NP1iqPsxtxDzdF3vVpSx-49" value="&lt;font style=&quot;font-size: 15px;&quot;&gt;&lt;br&gt;Question Bank&lt;/font&gt;" style="ellipse;whiteSpace=wrap;html=1;labelBackgroundColor=default;strokeColor=default;align=center;verticalAlign=middle;fontFamily=Helvetica;fontSize=12;fontColor=default;fillColor=default;horizontal=1;" vertex="1" parent="1">
          <mxGeometry x="-880" y="-520" width="120" height="80" as="geometry" />
        </mxCell>
        <mxCell id="NP1iqPsxtxDzdF3vVpSx-50" value="&amp;lt;&amp;lt;Include&amp;gt;&amp;gt;" style="endArrow=open;endSize=12;dashed=1;html=1;rounded=0;fontFamily=Helvetica;fontSize=12;fontColor=default;exitX=0.5;exitY=1;exitDx=0;exitDy=0;entryX=0.5;entryY=0;entryDx=0;entryDy=0;" edge="1" parent="1" source="NP1iqPsxtxDzdF3vVpSx-49" target="NP1iqPsxtxDzdF3vVpSx-5">
          <mxGeometry x="0.0066" width="160" relative="1" as="geometry">
            <mxPoint x="-980" y="-430" as="sourcePoint" />
            <mxPoint x="-752" y="-338" as="targetPoint" />
            <mxPoint as="offset" />
          </mxGeometry>
        </mxCell>
        <mxCell id="NP1iqPsxtxDzdF3vVpSx-51" value="&lt;div style=&quot;text-align: justify; font-size: 15px; line-height: 120%;&quot;&gt;&lt;font style=&quot;font-size: 15px;&quot;&gt;&lt;br&gt;&lt;/font&gt;&lt;/div&gt;&lt;font style=&quot;font-size: 15px;&quot;&gt;&lt;div style=&quot;text-align: justify; line-height: 120%;&quot;&gt;Test Settings&lt;/div&gt;&lt;/font&gt;" style="ellipse;whiteSpace=wrap;html=1;labelBackgroundColor=default;strokeColor=default;align=center;verticalAlign=middle;fontFamily=Helvetica;fontSize=12;fontColor=default;fillColor=default;" vertex="1" parent="1">
          <mxGeometry x="-1020" y="-390" width="120" height="80" as="geometry" />
        </mxCell>
        <mxCell id="NP1iqPsxtxDzdF3vVpSx-52" value="&amp;lt;&amp;lt;Include&amp;gt;&amp;gt;" style="endArrow=open;endSize=12;dashed=1;html=1;rounded=0;fontFamily=Helvetica;fontSize=12;fontColor=default;exitX=0.958;exitY=0.65;exitDx=0;exitDy=0;entryX=0;entryY=0.5;entryDx=0;entryDy=0;exitPerimeter=0;" edge="1" parent="1" source="NP1iqPsxtxDzdF3vVpSx-51" target="NP1iqPsxtxDzdF3vVpSx-5">
          <mxGeometry x="0.0066" width="160" relative="1" as="geometry">
            <mxPoint x="-810" y="-430" as="sourcePoint" />
            <mxPoint x="-710" y="-350" as="targetPoint" />
            <mxPoint as="offset" />
          </mxGeometry>
        </mxCell>
        <mxCell id="NP1iqPsxtxDzdF3vVpSx-53" value="&lt;font style=&quot;font-size: 15px;&quot;&gt;View Scores&lt;br&gt;&lt;/font&gt;" style="ellipse;whiteSpace=wrap;html=1;labelBackgroundColor=default;strokeColor=default;align=center;verticalAlign=middle;fontFamily=Helvetica;fontSize=12;fontColor=default;fillColor=default;" vertex="1" parent="1">
          <mxGeometry x="-900" y="-200" width="120" height="80" as="geometry" />
        </mxCell>
        <mxCell id="NP1iqPsxtxDzdF3vVpSx-54" value="&lt;font style=&quot;font-size: 15px;&quot;&gt;&lt;br&gt;Save &lt;br&gt;Records&lt;/font&gt;" style="ellipse;whiteSpace=wrap;html=1;labelBackgroundColor=default;strokeColor=default;align=center;verticalAlign=top;fontFamily=Helvetica;fontSize=12;fontColor=default;fillColor=default;" vertex="1" parent="1">
          <mxGeometry x="-750" y="-240" width="120" height="80" as="geometry" />
        </mxCell>
        <mxCell id="NP1iqPsxtxDzdF3vVpSx-55" value="&lt;font style=&quot;font-size: 15px;&quot;&gt;Delete &lt;br&gt;Records&lt;br&gt;&lt;/font&gt;" style="ellipse;whiteSpace=wrap;html=1;labelBackgroundColor=default;strokeColor=default;align=center;verticalAlign=middle;fontFamily=Helvetica;fontSize=12;fontColor=default;fillColor=default;" vertex="1" parent="1">
          <mxGeometry x="-1060" y="-210" width="120" height="80" as="geometry" />
        </mxCell>
        <mxCell id="NP1iqPsxtxDzdF3vVpSx-57" value="&amp;lt;&amp;lt;Include&amp;gt;&amp;gt;" style="endArrow=open;endSize=12;dashed=1;html=1;rounded=0;fontFamily=Helvetica;fontSize=12;fontColor=default;exitX=0.95;exitY=0.25;exitDx=0;exitDy=0;entryX=0.383;entryY=0.95;entryDx=0;entryDy=0;exitPerimeter=0;entryPerimeter=0;" edge="1" parent="1" source="NP1iqPsxtxDzdF3vVpSx-55" target="NP1iqPsxtxDzdF3vVpSx-5">
          <mxGeometry x="0.0066" width="160" relative="1" as="geometry">
            <mxPoint x="-930" y="-250" as="sourcePoint" />
            <mxPoint x="-752" y="-282" as="targetPoint" />
            <mxPoint as="offset" />
          </mxGeometry>
        </mxCell>
        <mxCell id="NP1iqPsxtxDzdF3vVpSx-58" value="Bulk&lt;br&gt;&amp;nbsp;Student&lt;br&gt;Registration" style="ellipse;whiteSpace=wrap;html=1;labelBackgroundColor=default;strokeColor=default;align=center;verticalAlign=middle;fontFamily=Helvetica;fontSize=15;fontColor=default;fillColor=default;" vertex="1" parent="1">
          <mxGeometry x="-1060" y="-300" width="120" height="80" as="geometry" />
        </mxCell>
        <mxCell id="NP1iqPsxtxDzdF3vVpSx-59" value="&amp;lt;&amp;lt;Include&amp;gt;&amp;gt;" style="endArrow=open;endSize=12;dashed=1;html=1;rounded=0;fontFamily=Helvetica;fontSize=12;fontColor=default;exitX=1;exitY=0;exitDx=0;exitDy=0;entryX=0.5;entryY=1;entryDx=0;entryDy=0;" edge="1" parent="1" source="NP1iqPsxtxDzdF3vVpSx-53" target="NP1iqPsxtxDzdF3vVpSx-5">
          <mxGeometry x="0.0066" width="160" relative="1" as="geometry">
            <mxPoint x="-936" y="-180" as="sourcePoint" />
            <mxPoint x="-724" y="-274" as="targetPoint" />
            <mxPoint as="offset" />
          </mxGeometry>
        </mxCell>
        <mxCell id="NP1iqPsxtxDzdF3vVpSx-60" value="&amp;lt;&amp;lt;Include&amp;gt;&amp;gt;" style="endArrow=open;endSize=12;dashed=1;html=1;rounded=0;fontFamily=Helvetica;fontSize=12;fontColor=default;exitX=1;exitY=0;exitDx=0;exitDy=0;entryX=0.775;entryY=0.975;entryDx=0;entryDy=0;entryPerimeter=0;" edge="1" parent="1" source="NP1iqPsxtxDzdF3vVpSx-54" target="NP1iqPsxtxDzdF3vVpSx-5">
          <mxGeometry x="0.0066" width="160" relative="1" as="geometry">
            <mxPoint x="-788" y="-178" as="sourcePoint" />
            <mxPoint x="-714" y="-264" as="targetPoint" />
            <mxPoint as="offset" />
          </mxGeometry>
        </mxCell>
        <mxCell id="NP1iqPsxtxDzdF3vVpSx-61" value="&lt;font style=&quot;font-size: 15px;&quot;&gt;View &lt;br&gt;Scores&lt;/font&gt;" style="ellipse;whiteSpace=wrap;html=1;labelBackgroundColor=default;strokeColor=default;align=center;verticalAlign=middle;fontFamily=Helvetica;fontSize=12;fontColor=default;fillColor=default;" vertex="1" parent="1">
          <mxGeometry x="-1050" y="-710" width="120" height="80" as="geometry" />
        </mxCell>
        <mxCell id="NP1iqPsxtxDzdF3vVpSx-62" value="&lt;font style=&quot;font-size: 15px;&quot;&gt;Print &lt;br&gt;Scripts&lt;/font&gt;" style="ellipse;whiteSpace=wrap;html=1;labelBackgroundColor=default;strokeColor=default;align=center;verticalAlign=middle;fontFamily=Helvetica;fontSize=12;fontColor=default;fillColor=default;" vertex="1" parent="1">
          <mxGeometry x="-650" y="-720" width="120" height="80" as="geometry" />
        </mxCell>
        <mxCell id="NP1iqPsxtxDzdF3vVpSx-63" value="&amp;lt;&amp;lt;Include&amp;gt;&amp;gt;" style="endArrow=open;endSize=12;dashed=1;html=1;rounded=0;fontFamily=Helvetica;fontSize=12;fontColor=default;exitX=0.5;exitY=0;exitDx=0;exitDy=0;entryX=0;entryY=0.5;entryDx=0;entryDy=0;" edge="1" parent="1" source="NP1iqPsxtxDzdF3vVpSx-61" target="NP1iqPsxtxDzdF3vVpSx-3">
          <mxGeometry x="0.0066" width="160" relative="1" as="geometry">
            <mxPoint x="-980" y="-430" as="sourcePoint" />
            <mxPoint x="-752" y="-338" as="targetPoint" />
            <mxPoint as="offset" />
          </mxGeometry>
        </mxCell>
        <mxCell id="NP1iqPsxtxDzdF3vVpSx-64" value="&amp;lt;&amp;lt;Include&amp;gt;&amp;gt;" style="endArrow=open;endSize=12;dashed=1;html=1;rounded=0;fontFamily=Helvetica;fontSize=12;fontColor=default;exitX=0;exitY=0.5;exitDx=0;exitDy=0;entryX=1;entryY=0.5;entryDx=0;entryDy=0;" edge="1" parent="1" source="NP1iqPsxtxDzdF3vVpSx-62" target="NP1iqPsxtxDzdF3vVpSx-3">
          <mxGeometry x="0.0066" width="160" relative="1" as="geometry">
            <mxPoint x="-980" y="-430" as="sourcePoint" />
            <mxPoint x="-752" y="-338" as="targetPoint" />
            <mxPoint as="offset" />
          </mxGeometry>
        </mxCell>
      </root>
    </mxGraphModel>
  </diagram>
</mxfile>
